<svg xmlns="http://www.w3.org/2000/svg" width="430" height="430" fill="none" viewBox="0 0 430 430"><path fill="#ebe6ef" d="M375 160H55v55h320z"/><path fill="#ebe6ef" d="M375 160H55v55h320z"/><path fill="#ebe6ef" d="M55 160h30v55H55z" opacity=".5" style="mix-blend-mode:multiply"/><path fill="#eee966" d="m135 160-50 50h70l50-50zm140 0-50 50h70l50-50z"/><path fill="#eee966" d="m135 160-50 50h70l50-50zm140 0-50 50h70l50-50z" opacity=".5" style="mix-blend-mode:multiply"/><path fill="#eee966" d="m85 210 50-50h35l-50 50zm140 0 50-50h35l-50 50z" opacity=".5" style="mix-blend-mode:multiply"/><path fill="#ebe6ef" d="m155 210 50-50h35l-50 50zm140 0 50-50h29.995v5.004L330 210z" opacity=".5" style="mix-blend-mode:multiply"/><path fill="#ebe6ef" d="M47.233 131.023c-2.858-10.669 3.473-21.636 14.143-24.494l270.459-72.47c10.669-2.859 21.636 3.473 24.495 14.142l7.764 28.978-309.096 82.822z"/><path fill="#ebe6ef" d="M90.364 98.762c-10.67 2.859-17 13.826-14.142 24.495l7.764 28.977-28.988 7.767-7.765-28.977c-2.858-10.67 3.473-21.637 14.143-24.495z" opacity=".5" style="mix-blend-mode:multiply"/><path fill="#eee966" d="m275.989 49.026 61.237 35.355-67.615 18.118-61.237-35.356zM140.759 85.26l61.238 35.356-67.615 18.117-61.238-35.355z"/><path fill="#eee966" d="m275.989 49.026 61.237 35.355-67.615 18.118-61.237-35.356zM140.759 85.26l61.238 35.356-67.615 18.117-61.238-35.355z" opacity=".5" style="mix-blend-mode:multiply"/><path fill="#eee966" d="m208.374 67.143 61.237 35.356 33.808-9.059-61.237-35.355zM73.145 103.378l61.237 35.355 33.807-9.058-61.237-35.356z" opacity=".5" style="mix-blend-mode:multiply"/><path fill="#ebe6ef" d="m140.758 85.257 61.237 35.355 33.807-9.059-61.237-35.355zm135.23-36.236 61.238 35.356 26.868-7.198-1.86-6.94-52.438-30.276z" opacity=".5" style="mix-blend-mode:multiply"/><path fill="#eee966" d="M55 210h320v140c0 11.045-8.954 20-20 20H75c-11.046 0-20-8.955-20-20z"/><path fill="#eee966" d="M85 210H55v140c0 11.046 8.954 20 20 20h30c-11.046 0-20-8.954-20-20z" opacity=".5" style="mix-blend-mode:multiply"/><path stroke="#121331" stroke-linecap="round" stroke-linejoin="round" stroke-width="3.5" d="m85 210 50-50m20 50 50-50m20 50 50-50m20 50 50-50"/><path stroke="#121331" stroke-linecap="round" stroke-linejoin="round" stroke-miterlimit="10" stroke-width="3.5" d="M55 160h320v190c0 11.046-8.954 20-20 20H75c-11.046 0-20-8.954-20-20z"/><path stroke="#121331" stroke-linecap="round" stroke-linejoin="round" stroke-width="3.5" d="m337.23 84.382-61.237-35.355m-6.378 53.472-61.237-35.355M202 120.617l-61.237-35.356m-6.377 53.473-61.238-35.355"/><path stroke="#121331" stroke-linecap="round" stroke-linejoin="round" stroke-miterlimit="10" stroke-width="3.5" d="M47.233 131.024c-2.858-10.669 3.473-21.636 14.143-24.495l270.459-72.47c10.669-2.858 21.636 3.474 24.495 14.143l7.764 28.978-309.096 82.822zM375 210H55"/><path fill="#242424" d="m255 290-60 45v-90z"/><path fill="#242424" d="M210 323.75v-67.5L195 245v90z" opacity=".5" style="mix-blend-mode:multiply"/><path stroke="#121331" stroke-linejoin="round" stroke-width="3.5" d="m255 290-60 45v-90z"/></svg>